<svg width="798pt" height="591pt" viewBox="0.00 0.00 797.76 591.00" xmlns="http://www.w3.org/2000/svg" xmlns:xlink="http://www.w3.org/1999/xlink" style="max-width: 100%; height: auto;">
<g id="graph0" class="graph" transform="scale(1 1) rotate(0) translate(4 587)">
<title>@mbostock/psr-b1919-21</title>
<polygon fill="#ffffff" stroke="transparent" points="-4,4 -4,-587 793.7608,-587 793.7608,4 -4,4"/>
<!-- md -->
<g id="node1" class="node">
<title>md</title>
<ellipse fill="none" stroke="#9370db" cx="38.3801" cy="-198" rx="27" ry="18"/>
<text text-anchor="middle" x="38.3801" y="-193.8" font-family="Times,serif" font-size="14.00" fill="#9370db">md</text>
</g>
<!-- #0 -->
<g id="node2" class="node">
<title>#0</title>
<ellipse fill="none" stroke="#c0c0c0" cx="139.7603" cy="-198" rx="27" ry="18"/>
<text text-anchor="middle" x="139.7603" y="-193.8" font-family="Times,serif" font-size="14.00" fill="#c0c0c0">#0</text>
</g>
<!-- md&#45;&gt;#0 -->
<g id="edge1" class="edge">
<title>md-&gt;#0</title>
<path fill="none" stroke="#9370db" d="M65.5482,-198C76.7984,-198 90.0349,-198 102.1905,-198"/>
<polygon fill="#9370db" stroke="#9370db" points="102.5173,-201.5001 112.5173,-198 102.5172,-194.5001 102.5173,-201.5001"/>
</g>
<!-- d3 -->
<g id="node3" class="node">
<title>d3</title>
<ellipse fill="none" stroke="#20b2aa" cx="139.7603" cy="-252" rx="27" ry="18"/>
<text text-anchor="middle" x="139.7603" y="-247.8" font-family="Times,serif" font-size="14.00" fill="#20b2aa">d3</text>
</g>
<!-- chart -->
<g id="node4" class="node">
<title>chart</title>
<ellipse fill="none" stroke="#000000" cx="759.4239" cy="-283" rx="30.1746" ry="18"/>
<text text-anchor="middle" x="759.4239" y="-278.8" font-family="Times,serif" font-size="14.00" fill="#000000">chart</text>
</g>
<!-- d3&#45;&gt;chart -->
<g id="edge2" class="edge">
<title>d3-&gt;chart</title>
<path fill="none" stroke="#20b2aa" d="M155.8702,-237.1894C159.636,-233.3843 163.4966,-229.1801 166.7603,-225 185.8986,-200.4881 184.4534,-190.139 202.7603,-165 261.5931,-84.2107 255.5946,0 355.5357,0 355.5357,0 355.5357,0 562.849,0 625.6824,0 651.3179,-8.0599 693.087,-55 719.7422,-84.9551 744.1924,-201.0391 754.3971,-255.0584"/>
<polygon fill="#20b2aa" stroke="#20b2aa" points="750.9749,-255.7995 756.2446,-264.9908 757.8568,-254.5194 750.9749,-255.7995"/>
</g>
<!-- data -->
<g id="node8" class="node">
<title>data</title>
<ellipse fill="none" stroke="#000000" cx="241.1511" cy="-252" rx="27.2447" ry="18"/>
<text text-anchor="middle" x="241.1511" y="-247.8" font-family="Times,serif" font-size="14.00" fill="#000000">data</text>
</g>
<!-- d3&#45;&gt;data -->
<g id="edge32" class="edge">
<title>d3-&gt;data</title>
<path fill="none" stroke="#20b2aa" d="M166.9312,-252C178.1826,-252 191.4205,-252 203.5773,-252"/>
<polygon fill="#20b2aa" stroke="#20b2aa" points="203.9052,-255.5001 213.9052,-252 203.9052,-248.5001 203.9052,-255.5001"/>
</g>
<!-- y -->
<g id="node9" class="node">
<title>y</title>
<ellipse fill="none" stroke="#000000" cx="355.5357" cy="-267" rx="27" ry="18"/>
<text text-anchor="middle" x="355.5357" y="-262.8" font-family="Times,serif" font-size="14.00" fill="#000000">y</text>
</g>
<!-- d3&#45;&gt;y -->
<g id="edge15" class="edge">
<title>d3-&gt;y</title>
<path fill="none" stroke="#20b2aa" d="M160.6361,-263.4842C172.5818,-269.3975 188.0729,-275.9853 202.7603,-279 242.4486,-287.1463 288.9802,-281.3544 320.1692,-275.3242"/>
<polygon fill="#20b2aa" stroke="#20b2aa" points="321.0292,-278.7209 330.1261,-273.2899 319.6278,-271.8626 321.0292,-278.7209"/>
</g>
<!-- area -->
<g id="node10" class="node">
<title>area</title>
<ellipse fill="none" stroke="#000000" cx="562.849" cy="-206" rx="27.2234" ry="18"/>
<text text-anchor="middle" x="562.849" y="-201.8" font-family="Times,serif" font-size="14.00" fill="#000000">area</text>
</g>
<!-- d3&#45;&gt;area -->
<g id="edge28" class="edge">
<title>d3-&gt;area</title>
<path fill="none" stroke="#20b2aa" d="M160.9871,-240.6758C172.9135,-234.8901 188.2734,-228.3737 202.7603,-225 317.9827,-198.1668 459.3176,-200.5963 525.423,-203.7075"/>
<polygon fill="#20b2aa" stroke="#20b2aa" points="525.5826,-207.2199 535.7464,-204.2285 525.9355,-200.2288 525.5826,-207.2199"/>
</g>
<!-- xAxis -->
<g id="node12" class="node">
<title>xAxis</title>
<ellipse fill="none" stroke="#000000" cx="465.6335" cy="-386" rx="34.2084" ry="18"/>
<text text-anchor="middle" x="465.6335" y="-381.8" font-family="Times,serif" font-size="14.00" fill="#000000">xAxis</text>
</g>
<!-- d3&#45;&gt;xAxis -->
<g id="edge25" class="edge">
<title>d3-&gt;xAxis</title>
<path fill="none" stroke="#20b2aa" d="M141.2182,-270.04C146.0355,-324.5828 163.4295,-485.9234 202.7603,-517 283.2472,-580.5955 399.5682,-463.3437 445.701,-410.2035"/>
<polygon fill="#20b2aa" stroke="#20b2aa" points="448.3982,-412.4348 452.2364,-402.5596 443.0777,-407.8858 448.3982,-412.4348"/>
</g>
<!-- x -->
<g id="node15" class="node">
<title>x</title>
<ellipse fill="none" stroke="#000000" cx="355.5357" cy="-321" rx="27" ry="18"/>
<text text-anchor="middle" x="355.5357" y="-316.8" font-family="Times,serif" font-size="14.00" fill="#000000">x</text>
</g>
<!-- d3&#45;&gt;x -->
<g id="edge11" class="edge">
<title>d3-&gt;x</title>
<path fill="none" stroke="#20b2aa" d="M156.5143,-266.417C168.5856,-276.0238 185.6922,-288.1086 202.7603,-295 240.3042,-310.1586 286.5014,-316.48 318.2046,-319.1158"/>
<polygon fill="#20b2aa" stroke="#20b2aa" points="318.1338,-322.6202 328.367,-319.8758 318.656,-315.6396 318.1338,-322.6202"/>
</g>
<!-- z -->
<g id="node16" class="node">
<title>z</title>
<ellipse fill="none" stroke="#000000" cx="465.6335" cy="-160" rx="27" ry="18"/>
<text text-anchor="middle" x="465.6335" y="-155.8" font-family="Times,serif" font-size="14.00" fill="#000000">z</text>
</g>
<!-- d3&#45;&gt;z -->
<g id="edge19" class="edge">
<title>d3-&gt;z</title>
<path fill="none" stroke="#20b2aa" d="M155.0188,-237.0044C172.7121,-219.6862 199.8408,-193.3783 202.7603,-192 277.0496,-156.9285 375.7052,-155.2264 428.5168,-157.3969"/>
<polygon fill="#20b2aa" stroke="#20b2aa" points="428.5991,-160.9049 438.7562,-157.891 428.9365,-153.913 428.5991,-160.9049"/>
</g>
<!-- DOM -->
<g id="node5" class="node">
<title>DOM</title>
<ellipse fill="none" stroke="#9370db" cx="659.5238" cy="-565" rx="33.6266" ry="18"/>
<text text-anchor="middle" x="659.5238" y="-560.8" font-family="Times,serif" font-size="14.00" fill="#9370db">DOM</text>
</g>
<!-- DOM&#45;&gt;chart -->
<g id="edge3" class="edge">
<title>DOM-&gt;chart</title>
<path fill="none" stroke="#9370db" d="M678.9044,-549.9504C684.1534,-545.0423 689.3971,-539.2359 693.087,-533 736.0313,-460.4238 751.668,-359.7933 756.9516,-311.325"/>
<polygon fill="#9370db" stroke="#9370db" points="760.4456,-311.5617 757.9801,-301.2577 753.4818,-310.8502 760.4456,-311.5617"/>
</g>
<!-- width -->
<g id="node6" class="node">
<title>width</title>
<ellipse fill="none" stroke="#9370db" cx="241.1511" cy="-490" rx="33.0643" ry="18"/>
<text text-anchor="middle" x="241.1511" y="-485.8" font-family="Times,serif" font-size="14.00" fill="#9370db">width</text>
</g>
<!-- width&#45;&gt;chart -->
<g id="edge4" class="edge">
<title>width-&gt;chart</title>
<path fill="none" stroke="#9370db" d="M272.2185,-496.5805C315.393,-505.1368 396.0787,-519 465.6335,-519 465.6335,-519 465.6335,-519 562.849,-519 629.2053,-519 649.1728,-495.7462 693.087,-446 727.994,-406.4573 745.989,-346.118 754.007,-311.0151"/>
<polygon fill="#9370db" stroke="#9370db" points="757.4838,-311.4969 756.1827,-300.9823 750.6428,-310.0133 757.4838,-311.4969"/>
</g>
<!-- width&#45;&gt;xAxis -->
<g id="edge27" class="edge">
<title>width-&gt;xAxis</title>
<path fill="none" stroke="#9370db" d="M267.9849,-479.4102C299.0484,-466.949 351.5741,-445.2525 395.5295,-424 408.0193,-417.9612 421.473,-410.8273 433.2222,-404.381"/>
<polygon fill="#9370db" stroke="#9370db" points="435.1764,-407.2997 442.2284,-399.3927 431.7848,-401.1762 435.1764,-407.2997"/>
</g>
<!-- width&#45;&gt;x -->
<g id="edge14" class="edge">
<title>width-&gt;x</title>
<path fill="none" stroke="#9370db" d="M263.71,-476.7536C269.3119,-472.7936 275.0048,-468.1249 279.5418,-463 310.3476,-428.2023 333.1858,-378.7315 345.4167,-348.3095"/>
<polygon fill="#9370db" stroke="#9370db" points="348.7645,-349.3592 349.1541,-338.7715 342.2469,-346.8053 348.7645,-349.3592"/>
</g>
<!-- height -->
<g id="node7" class="node">
<title>height</title>
<ellipse fill="none" stroke="#000000" cx="241.1511" cy="-436" rx="35.3528" ry="18"/>
<text text-anchor="middle" x="241.1511" y="-431.8" font-family="Times,serif" font-size="14.00" fill="#000000">height</text>
</g>
<!-- height&#45;&gt;chart -->
<g id="edge5" class="edge">
<title>height-&gt;chart</title>
<path fill="none" stroke="#000000" d="M270.9074,-445.8754C313.5367,-459.1219 394.6834,-481 465.6335,-481 465.6335,-481 465.6335,-481 562.849,-481 658.1546,-481 723.0789,-364.0414 748.0252,-309.906"/>
<polygon fill="#000000" stroke="#000000" points="751.3133,-311.1275 752.2163,-300.5712 744.9274,-308.2603 751.3133,-311.1275"/>
</g>
<!-- height&#45;&gt;y -->
<g id="edge18" class="edge">
<title>height-&gt;y</title>
<path fill="none" stroke="#000000" d="M265.1874,-422.7277C270.5076,-418.8759 275.6981,-414.2649 279.5418,-409 311.1215,-365.7441 283.5502,-336.9521 315.5418,-294 318.3192,-290.2711 321.772,-286.89 325.4769,-283.8812"/>
<polygon fill="#000000" stroke="#000000" points="327.736,-286.5683 333.8259,-277.8985 323.6587,-280.8783 327.736,-286.5683"/>
</g>
<!-- height&#45;&gt;xAxis -->
<g id="edge23" class="edge">
<title>height-&gt;xAxis</title>
<path fill="none" stroke="#000000" d="M273.7927,-428.7296C313.532,-419.8783 380.6984,-404.918 424.0894,-395.2533"/>
<polygon fill="#000000" stroke="#000000" points="425.0405,-398.6273 434.0404,-393.0369 423.5186,-391.7947 425.0405,-398.6273"/>
</g>
<!-- data&#45;&gt;chart -->
<g id="edge6" class="edge">
<title>data-&gt;chart</title>
<path fill="none" stroke="#000000" d="M243.6596,-234.0681C249.5436,-198.9097 267.5542,-120.7228 315.5418,-79 367.7269,-33.6277 396.482,-38 465.6335,-38 465.6335,-38 465.6335,-38 562.849,-38 673.1381,-38 731.8532,-190.9063 751.6495,-255.1255"/>
<polygon fill="#000000" stroke="#000000" points="748.379,-256.4056 754.596,-264.9846 755.0859,-254.4011 748.379,-256.4056"/>
</g>
<!-- data&#45;&gt;y -->
<g id="edge16" class="edge">
<title>data-&gt;y</title>
<path fill="none" stroke="#000000" d="M267.9692,-255.5168C283.0277,-257.4916 302.0438,-259.9853 318.5047,-262.1439"/>
<polygon fill="#000000" stroke="#000000" points="318.5153,-265.6752 328.8856,-263.5052 319.4256,-258.7346 318.5153,-265.6752"/>
</g>
<!-- data&#45;&gt;x -->
<g id="edge12" class="edge">
<title>data-&gt;x</title>
<path fill="none" stroke="#000000" d="M261.3374,-264.177C279.4388,-275.0962 306.2073,-291.2437 326.5872,-303.5375"/>
<polygon fill="#000000" stroke="#000000" points="324.7958,-306.5443 335.1663,-308.7127 328.4115,-300.5504 324.7958,-306.5443"/>
</g>
<!-- data&#45;&gt;z -->
<g id="edge20" class="edge">
<title>data-&gt;z</title>
<path fill="none" stroke="#000000" d="M243.5119,-233.8103C249.0483,-199.5548 266.3499,-126.1262 315.5418,-95 345.5831,-75.9914 362.4345,-82.0181 395.5295,-95 416.3886,-103.1823 434.7432,-120.8107 447.434,-135.6472"/>
<polygon fill="#000000" stroke="#000000" points="444.8394,-138.0032 453.8817,-143.5247 450.2563,-133.5695 444.8394,-138.0032"/>
</g>
<!-- y&#45;&gt;chart -->
<g id="edge7" class="edge">
<title>y-&gt;chart</title>
<path fill="none" stroke="#000000" d="M382.6631,-268.0746C452.0494,-270.8234 636.2986,-278.1224 718.6543,-281.3849"/>
<polygon fill="#000000" stroke="#000000" points="718.7477,-284.8913 728.8784,-281.7899 719.0248,-277.8968 718.7477,-284.8913"/>
</g>
<!-- y&#45;&gt;z -->
<g id="edge22" class="edge">
<title>y-&gt;z</title>
<path fill="none" stroke="#000000" d="M370.8443,-252.1221C389.4729,-234.0177 421.1022,-203.2783 442.6572,-182.3298"/>
<polygon fill="#000000" stroke="#000000" points="445.368,-184.5759 450.1,-175.0965 440.4894,-179.556 445.368,-184.5759"/>
</g>
<!-- area&#45;&gt;chart -->
<g id="edge8" class="edge">
<title>area-&gt;chart</title>
<path fill="none" stroke="#000000" d="M588.9184,-201.0525C616.2249,-197.1471 659.7034,-194.611 693.087,-210 714.6738,-219.951 732.3538,-240.572 744.0174,-257.367"/>
<polygon fill="#000000" stroke="#000000" points="741.1147,-259.3228 749.5571,-265.7241 746.9492,-255.4552 741.1147,-259.3228"/>
</g>
<!-- line -->
<g id="node11" class="node">
<title>line</title>
<ellipse fill="none" stroke="#000000" cx="659.5238" cy="-237" rx="27" ry="18"/>
<text text-anchor="middle" x="659.5238" y="-232.8" font-family="Times,serif" font-size="14.00" fill="#000000">line</text>
</g>
<!-- area&#45;&gt;line -->
<g id="edge31" class="edge">
<title>area-&gt;line</title>
<path fill="none" stroke="#000000" d="M587.4943,-213.9028C598.9711,-217.583 612.8154,-222.0224 625.2871,-226.0216"/>
<polygon fill="#000000" stroke="#000000" points="624.3324,-229.3909 634.9235,-229.1116 626.4698,-222.7252 624.3324,-229.3909"/>
</g>
<!-- line&#45;&gt;chart -->
<g id="edge9" class="edge">
<title>line-&gt;chart</title>
<path fill="none" stroke="#000000" d="M682.1926,-247.4381C695.2264,-253.4396 711.8349,-261.0872 726.3081,-267.7515"/>
<polygon fill="#000000" stroke="#000000" points="724.9044,-270.9583 735.4516,-271.9617 727.8322,-264.6 724.9044,-270.9583"/>
</g>
<!-- xAxis&#45;&gt;chart -->
<g id="edge10" class="edge">
<title>xAxis-&gt;chart</title>
<path fill="none" stroke="#000000" d="M494.0703,-376.0303C547.8412,-357.1788 664.316,-316.3439 723.4365,-295.6168"/>
<polygon fill="#000000" stroke="#000000" points="724.8191,-298.841 733.098,-292.2296 722.5031,-292.2352 724.8191,-298.841"/>
</g>
<!-- overlap -->
<g id="node13" class="node">
<title>overlap</title>
<ellipse fill="none" stroke="#000000" cx="355.5357" cy="-122" rx="39.9876" ry="18"/>
<text text-anchor="middle" x="355.5357" y="-117.8" font-family="Times,serif" font-size="14.00" fill="#000000">overlap</text>
</g>
<!-- overlap&#45;&gt;z -->
<g id="edge21" class="edge">
<title>overlap-&gt;z</title>
<path fill="none" stroke="#000000" d="M387.3805,-132.9912C401.2808,-137.7888 417.5972,-143.4204 431.7237,-148.2961"/>
<polygon fill="#000000" stroke="#000000" points="430.9624,-151.7359 441.5571,-151.6901 433.2463,-145.1189 430.9624,-151.7359"/>
</g>
<!-- margin -->
<g id="node14" class="node">
<title>margin</title>
<ellipse fill="none" stroke="#000000" cx="241.1511" cy="-382" rx="38.2818" ry="18"/>
<text text-anchor="middle" x="241.1511" y="-377.8" font-family="Times,serif" font-size="14.00" fill="#000000">margin</text>
</g>
<!-- margin&#45;&gt;y -->
<g id="edge17" class="edge">
<title>margin-&gt;y</title>
<path fill="none" stroke="#000000" d="M253.3556,-364.9043C267.1735,-346.2312 290.9758,-316.0472 315.5418,-294 319.0022,-290.8945 322.8418,-287.8665 326.7338,-285.0283"/>
<polygon fill="#000000" stroke="#000000" points="328.9792,-287.7308 335.2103,-279.162 324.9956,-281.9748 328.9792,-287.7308"/>
</g>
<!-- margin&#45;&gt;xAxis -->
<g id="edge24" class="edge">
<title>margin-&gt;xAxis</title>
<path fill="none" stroke="#000000" d="M279.741,-382.6876C319.0326,-383.3878 379.8834,-384.472 421.1719,-385.2077"/>
<polygon fill="#000000" stroke="#000000" points="421.1616,-388.708 431.2224,-385.3868 421.2864,-381.7091 421.1616,-388.708"/>
</g>
<!-- margin&#45;&gt;x -->
<g id="edge13" class="edge">
<title>margin-&gt;x</title>
<path fill="none" stroke="#000000" d="M266.5367,-368.4621C283.9912,-359.1538 307.2411,-346.7549 325.6001,-336.9643"/>
<polygon fill="#000000" stroke="#000000" points="327.2582,-340.0467 334.435,-332.2528 323.9643,-333.8701 327.2582,-340.0467"/>
</g>
<!-- x&#45;&gt;area -->
<g id="edge29" class="edge">
<title>x-&gt;area</title>
<path fill="none" stroke="#000000" d="M376.5548,-309.3403C413.5733,-288.8056 490.4937,-246.1366 533.0022,-222.5565"/>
<polygon fill="#000000" stroke="#000000" points="534.7273,-225.6021 541.7742,-217.6905 531.3317,-219.4808 534.7273,-225.6021"/>
</g>
<!-- x&#45;&gt;xAxis -->
<g id="edge26" class="edge">
<title>x-&gt;xAxis</title>
<path fill="none" stroke="#000000" d="M375.9862,-333.0737C392.2324,-342.6652 415.2397,-356.2483 433.8785,-367.2524"/>
<polygon fill="#000000" stroke="#000000" points="432.2382,-370.3483 442.6288,-372.4184 435.797,-364.3205 432.2382,-370.3483"/>
</g>
<!-- z&#45;&gt;area -->
<g id="edge30" class="edge">
<title>z-&gt;area</title>
<path fill="none" stroke="#000000" d="M487.6932,-170.4381C500.529,-176.5117 516.9276,-184.2711 531.1296,-190.9912"/>
<polygon fill="#000000" stroke="#000000" points="530.0039,-194.3305 540.5401,-195.444 532.998,-188.0031 530.0039,-194.3305"/>
</g>
<!-- require -->
<g id="node17" class="node">
<title>require</title>
<ellipse fill="none" stroke="#9370db" cx="38.3801" cy="-252" rx="38.2607" ry="18"/>
<text text-anchor="middle" x="38.3801" y="-247.8" font-family="Times,serif" font-size="14.00" fill="#9370db">require</text>
</g>
<!-- require&#45;&gt;d3 -->
<g id="edge33" class="edge">
<title>require-&gt;d3</title>
<path fill="none" stroke="#9370db" d="M76.9968,-252C85.3379,-252 94.1421,-252 102.4327,-252"/>
<polygon fill="#9370db" stroke="#9370db" points="102.5861,-255.5001 112.586,-252 102.586,-248.5001 102.5861,-255.5001"/>
</g>
</g>
</svg>